<?xml version="1.0" encoding="utf-8"?>
<!-- Uploaded to: SVG Repo, www.svgrepo.com, Generator: SVG Repo Mixer Tools -->
<svg width="800px" height="800px" viewBox="0 0 1024 1024" class="icon"  version="1.1" xmlns="http://www.w3.org/2000/svg"><path d="M196.6 311.6h660v129.2l15.8 76.1-15.8 63.7v184.5h-660z" fill="#2F2F33" /><path d="M860.7 444.5h-51.2v128.3h51.2v210.7c0 15.2-12.1 27.5-27.1 27.5h-637c-15 0-27.1-12.3-27.1-27.5V307c0-15.2 12.1-27.5 27.1-27.5h637c15 0 27.1 12.3 27.1 27.5v137.5z m-637-110V756h585.8V334.5H223.7z" fill="#2F2F33" /><path d="M794.3 304.3l-49.1 13.3-30.6-116.1-430.9 131.2-17.1-49.3 457.2-137.1c14.4-4.3 29.4 4 33.7 18.6 0.1 0.2 0.1 0.5 0.2 0.7l36.6 138.7zM887.8 389.467c15 0 27.1 12.3 27.1 27.5v183.2c0 15.2-12.1 27.5-27.1 27.5H707.1c-64.9 0-117.5-53.3-117.5-119.1s52.6-119.1 117.5-119.1h180.7z m-40.7 55h-140c-34.9 0-63.2 28.7-63.2 64.1s28.3 64.1 63.2 64.1h140c7.5 0 13.6-6.2 13.6-13.7v-100.8c0-7.6-6.1-13.7-13.6-13.7z" fill="#2F2F33" /><path d="M860.7 444.5h-51.2v128.3h51.2v210.7c0 15.2-12.1 27.5-27.1 27.5h-637c-15 0-27.1-12.3-27.1-27.5V307c0-15.2 12.1-27.5 27.1-27.5h637c15 0 27.1 12.3 27.1 27.5v137.5z m-637-110V756h585.8V334.5H223.7z" fill="#2F2F33" /><path d="M794.3 304.3l-49.1 13.3-30.6-116.1-430.9 131.2-17.1-49.3 457.2-137.1c14.4-4.3 29.4 4 33.7 18.6 0.1 0.2 0.1 0.5 0.2 0.7l36.6 138.7zM887.8 389.467c15 0 27.1 12.3 27.1 27.5v183.2c0 15.2-12.1 27.5-27.1 27.5H707.1c-64.9 0-117.5-53.3-117.5-119.1s52.6-119.1 117.5-119.1h180.7z m-40.7 55h-140c-34.9 0-63.2 28.7-63.2 64.1s28.3 64.1 63.2 64.1h140c7.5 0 13.6-6.2 13.6-13.7v-100.8c0-7.6-6.1-13.7-13.6-13.7z" fill="#2F2F33" /><path d="M860.7 444.5h-51.2v128.3h51.2v210.7c0 15.2-12.1 27.5-27.1 27.5h-637c-15 0-27.1-12.3-27.1-27.5V307c0-15.2 12.1-27.5 27.1-27.5h637c15 0 27.1 12.3 27.1 27.5v137.5z m-637-110V756h585.8V334.5H223.7z" fill="#2F2F33" /><path d="M794.3 304.3l-49.1 13.3-30.6-116.1-430.9 131.2-17.1-49.3 457.2-137.1c14.4-4.3 29.4 4 33.7 18.6 0.1 0.2 0.1 0.5 0.2 0.7l36.6 138.7zM887.8 389.467c15 0 27.1 12.3 27.1 27.5v183.2c0 15.2-12.1 27.5-27.1 27.5H707.1c-64.9 0-117.5-53.3-117.5-119.1s52.6-119.1 117.5-119.1h180.7z m-40.7 55h-140c-34.9 0-63.2 28.7-63.2 64.1s28.3 64.1 63.2 64.1h140c7.5 0 13.6-6.2 13.6-13.7v-100.8c0-7.6-6.1-13.7-13.6-13.7z" fill="#2F2F33" /><path d="M457.5 280.3l255.2-79.5 24.2 86.8z" fill="#2F2F33" /><path d="M196.6 311.6h660v129.2l15.8 76.1-15.8 63.7v184.5h-660z" fill="#FFFFFF" /><path d="M860.7 444.5h-51.2v128.3h51.2v210.7c0 15.2-12.1 27.5-27.1 27.5h-637c-15 0-27.1-12.3-27.1-27.5V307c0-15.2 12.1-27.5 27.1-27.5h637c15 0 27.1 12.3 27.1 27.5v137.5z m-637-110V756h585.8V334.5H223.7z" fill="#2F2F33" /><path d="M794.3 304.3l-49.1 13.3-30.6-116.1-430.9 131.2-17.1-49.3 457.2-137.1c14.4-4.3 29.4 4 33.7 18.6 0.1 0.2 0.1 0.5 0.2 0.7l36.6 138.7zM887.8 389.467c15 0 27.1 12.3 27.1 27.5v183.2c0 15.2-12.1 27.5-27.1 27.5H707.1c-64.9 0-117.5-53.3-117.5-119.1s52.6-119.1 117.5-119.1h180.7z m-40.7 55h-140c-34.9 0-63.2 28.7-63.2 64.1s28.3 64.1 63.2 64.1h140c7.5 0 13.6-6.2 13.6-13.7v-100.8c0-7.6-6.1-13.7-13.6-13.7z" fill="#2F2F33" /><path d="M860.7 444.5h-51.2v128.3h51.2v210.7c0 15.2-12.1 27.5-27.1 27.5h-637c-15 0-27.1-12.3-27.1-27.5V307c0-15.2 12.1-27.5 27.1-27.5h637c15 0 27.1 12.3 27.1 27.5v137.5z m-637-110V756h585.8V334.5H223.7z" fill="#2F2F33" /><path d="M794.3 304.3l-49.1 13.3-30.6-116.1-430.9 131.2-17.1-49.3 457.2-137.1c14.4-4.3 29.4 4 33.7 18.6 0.1 0.2 0.1 0.5 0.2 0.7l36.6 138.7zM887.8 389.467c15 0 27.1 12.3 27.1 27.5v183.2c0 15.2-12.1 27.5-27.1 27.5H707.1c-64.9 0-117.5-53.3-117.5-119.1s52.6-119.1 117.5-119.1h180.7z m-40.7 55h-140c-34.9 0-63.2 28.7-63.2 64.1s28.3 64.1 63.2 64.1h140c7.5 0 13.6-6.2 13.6-13.7v-100.8c0-7.6-6.1-13.7-13.6-13.7z" fill="#2F2F33" /><path d="M457.5 280.3l255.2-79.5 24.2 86.8z" fill="#8CAAFF" /><path d="M847.4 445h-140c-34.9 0-63.2 28.7-63.2 64.1s28.3 64.1 63.2 64.1h140c7.5 0 13.6-6.2 13.6-13.7V458.7c-0.1-7.6-6.1-13.7-13.6-13.7z" fill="#FFFFFF" /><path d="M686.4 506.5a27.1 27.5 0 1 0 54.2 0 27.1 27.5 0 1 0-54.2 0Z" fill="#2F2F33" /></svg>