<?xml version="1.0" encoding="utf-8"?>
<!-- Uploaded to: SVG Repo, www.svgrepo.com, Generator: SVG Repo Mixer Tools -->
<svg width="800px" height="800px" viewBox="0 0 1024 1024" class="icon"  version="1.1" xmlns="http://www.w3.org/2000/svg"><path d="M314.8 267.7h395.5c11.2 0 21.4 6.7 25.8 17l39.1 91.1H249.9l39.1-91.1c4.4-10.3 14.6-17 25.8-17z" fill="#FFFFFF" /><path d="M817.8 404H207.3l55.8-130.3c8.9-20.7 29.1-34 51.6-34h395.5c22.5 0 42.8 13.4 51.6 34.1l56 130.2z m-525.3-56.2h440.1l-22.3-52H314.8l-22.3 52z m22.3-80.1v28.1-28.1z" fill="#333333" /><path d="M265.7 422.2h493.8c15.5 0 28.1 12.6 28.1 28.1 0 1-0.1 2-0.2 2.9L747 836.7c-1.5 14.3-13.6 25.1-27.9 25.1h-413c-14.4 0-26.4-10.9-27.9-25.1l-40.4-383.4c-1.6-15.4 9.6-29.3 25-30.9 0.9-0.1 1.9-0.2 2.9-0.2z" fill="#FFFFFF" /><path d="M677.8 861.9H315.5c-19.7 0-36.2-14.9-38.3-34.5L239 464.8c-2.4-22.7 15.4-42.6 38.3-42.6h470.6c22.9 0 40.7 19.8 38.3 42.6l-34.9 330.9c-4 37.6-35.7 66.2-73.5 66.2z m-311.7-56.2h293c19.7 0 36.2-14.9 38.3-34.5L723.8 521c2.4-22.7-15.4-42.6-38.3-42.6H339.7c-22.9 0-40.7 19.8-38.3 42.6l26.4 250.2c2 19.6 18.6 34.5 38.3 34.5z" fill="#333333" /><path d="M310 598.1h406.2l-10.7 103.6-385.7 1.7z" fill="#F4CE26" /><path d="M296.3 690.5h417.1v61.8H296.3zM296.3 537.4h441v61.8h-441z" fill="#333333" /><path d="M249.9 375.9h525.3c25.6 0 46.3 20.8 46.3 46.3 0 25.6-20.8 46.3-46.3 46.3H249.9c-25.6 0-46.3-20.8-46.3-46.3 0-25.6 20.7-46.3 46.3-46.3z" fill="#F4CE26" /><path d="M775.2 496.7H249.9c-41 0-74.4-33.4-74.4-74.4s33.4-74.4 74.4-74.4h525.3c41 0 74.4 33.4 74.4 74.4s-33.3 74.4-74.4 74.4zM249.9 404c-10.1 0-18.3 8.2-18.3 18.3 0 10.1 8.2 18.3 18.3 18.3h525.3c10.1 0 18.3-8.2 18.3-18.3 0-10.1-8.2-18.3-18.3-18.3H249.9zM357.6 101.1c15-4 30.4 4.9 34.4 19.9l14.5 54.3c4 15-4.9 30.4-19.9 34.4-15 4-30.4-4.9-34.4-19.9l-14.5-54.3c-4-15 4.9-30.4 19.9-34.4zM498 101.1c15-4 30.4 4.9 34.4 19.9l14.5 54.3c4 15-4.9 30.4-19.9 34.4-15 4-30.4-4.9-34.4-19.9l-14.5-54.3c-3.9-15 5-30.4 19.9-34.4zM638.5 101.1c15-4 30.4 4.9 34.4 19.9l14.5 54.3c4 15-4.9 30.4-19.9 34.4-15 4-30.4-4.9-34.4-19.9l-14.5-54.3c-4-15 4.9-30.4 19.9-34.4z" fill="#333333" /></svg>