<?xml version="1.0" encoding="utf-8"?>
<!-- Uploaded to: SVG Repo, www.svgrepo.com, Generator: SVG Repo Mixer Tools -->
<svg width="800px" height="800px" viewBox="0 0 1024 1024" class="icon"  version="1.1" xmlns="http://www.w3.org/2000/svg"><path d="M167.2 408.6h117.6c31.6 0 57.1 25.6 57.1 57.1v201.9c0 31.6-25.6 57.1-57.1 57.1H167.2c-31.6 0-57.1-25.6-57.1-57.1V465.7c0-31.5 25.6-57.1 57.1-57.1z" fill="#8CAAFF" /><path d="M284.8 753.4H167.2c-47.3 0-85.7-38.4-85.7-85.7v-202c0-47.3 38.4-85.7 85.7-85.7h117.6c47.3 0 85.7 38.4 85.7 85.7v201.9c0.1 47.4-38.4 85.8-85.7 85.8zM167.2 437.2c-15.8 0-28.6 12.8-28.6 28.6v201.9c0 15.8 12.8 28.6 28.6 28.6h117.6c15.8 0 28.6-12.8 28.6-28.6v-202c0-15.8-12.8-28.6-28.6-28.6H167.2z" fill="#333333" /><path d="M721.1 408.6h117.6c31.6 0 57.1 25.6 57.1 57.1v201.9c0 31.6-25.6 57.1-57.1 57.1H721.1c-31.6 0-57.1-25.6-57.1-57.1V465.7c-0.1-31.5 25.5-57.1 57.1-57.1z" fill="#8CAAFF" /><path d="M838.7 753.4H721.1c-47.3 0-85.7-38.4-85.7-85.7v-202c0-47.3 38.4-85.7 85.7-85.7h117.6c47.3 0 85.7 38.4 85.7 85.7v201.9c0 47.4-38.5 85.8-85.7 85.8zM721.1 437.2c-15.8 0-28.6 12.8-28.6 28.6v201.9c0 15.8 12.8 28.6 28.6 28.6h117.6c15.8 0 28.6-12.8 28.6-28.6v-202c0-15.8-12.8-28.6-28.6-28.6H721.1z" fill="#333333" /><path d="M755.8 430.4V213.1c0-22.2-18-40.2-40.2-40.2H287.5c-18.9 0-34.2 15.3-34.2 34.2v223.2h-58.9V171c0-31.4 25.4-56.8 56.8-56.8h502.1c31.4 0 56.8 25.4 56.8 56.8v259.4h-54.3zM214.217 752.733l39.93-40.821 107.807 105.454-39.93 40.821z" fill="#333333" /><path d="M367.2 799.9h200V857h-200z" fill="#FFFFFF" /><path d="M581.5 914.2H352.9c-23.6 0-42.9-19.2-42.9-42.9v-85.7c0-23.6 19.2-42.9 42.9-42.9h228.6c23.6 0 42.9 19.2 42.9 42.9v85.7c0 23.7-19.2 42.9-42.9 42.9zM367.2 857h200v-57.1h-200V857z" fill="#333333" /></svg>